<?xml version="1.0" encoding="UTF-8" standalone="no"?>
<svg
   xmlns:dc="http://purl.org/dc/elements/1.1/"
   xmlns:cc="http://creativecommons.org/ns#"
   xmlns:rdf="http://www.w3.org/1999/02/22-rdf-syntax-ns#"
   xmlns:svg="http://www.w3.org/2000/svg"
   xmlns="http://www.w3.org/2000/svg"
   xmlns:sodipodi="http://sodipodi.sourceforge.net/DTD/sodipodi-0.dtd"
   xmlns:inkscape="http://www.inkscape.org/namespaces/inkscape"
   width="74mm"
   height="105mm"
   viewBox="0 0 74 105"
   version="1.1"
   id="svg8"
   inkscape:version="1.0 (4035a4fb49, 2020-05-01)"
   sodipodi:docname="seeds-logo-sm.svg">
  <defs
     id="defs2">
    <inkscape:perspective
       sodipodi:type="inkscape:persp3d"
       inkscape:vp_x="4.8166375e-07 : 315.72978 : 1"
       inkscape:vp_y="0 : -2787.7794 : 0"
       inkscape:vp_z="516.95327 : 315.72978 : 1"
       inkscape:persp3d-origin="258.47662 : 453.72489 : 1"
       id="perspective146" />
    <inkscape:perspective
       sodipodi:type="inkscape:persp3d"
       inkscape:vp_x="0 : -43.499975 : 1"
       inkscape:vp_y="0 : 999.99994 : 0"
       inkscape:vp_z="210 : -43.499975 : 1"
       inkscape:persp3d-origin="105.00001 : -93.000003 : 1"
       id="perspective116" />
    <rect
       x="53.988445"
       y="148.33459"
       width="70.826424"
       height="9.4898939"
       id="rect85" />
    <filter
       inkscape:label="Black Light"
       inkscape:menu="Color"
       inkscape:menu-tooltip="Light areas turn to black"
       style="color-interpolation-filters:sRGB"
       id="filter112">
      <feColorMatrix
         type="luminanceToAlpha"
         result="result2"
         id="feColorMatrix104" />
      <feComposite
         k4="0"
         k2="0"
         k1="0"
         in2="SourceGraphic"
         operator="arithmetic"
         in="result2"
         k3="2"
         result="result4"
         id="feComposite106" />
      <feBlend
         in="result4"
         mode="multiply"
         result="result3"
         in2="result2"
         id="feBlend108" />
      <feComposite
         in2="SourceGraphic"
         operator="in"
         in="result3"
         id="feComposite110" />
    </filter>
    <pattern
       y="0"
       x="0"
       height="6"
       width="6"
       patternUnits="userSpaceOnUse"
       id="EMFhbasepattern" />
    <clipPath
       id="clipEmfPath1"
       clipPathUnits="userSpaceOnUse">
      <path
         id="path162"
         d="M 0,-13.911569 H 449.80739 V 201.47789 H 0 Z" />
    </clipPath>
    <pattern
       y="0"
       x="0"
       height="6"
       width="6"
       patternUnits="userSpaceOnUse"
       id="EMFhbasepattern-4" />
    <clipPath
       id="clipEmfPath1-1"
       clipPathUnits="userSpaceOnUse">
      <path
         id="path186"
         d="M 0,-13.911569 H 449.80739 V 201.47789 H 0 Z" />
    </clipPath>
    <pattern
       y="0"
       x="0"
       height="6"
       width="6"
       patternUnits="userSpaceOnUse"
       id="EMFhbasepattern-0" />
  </defs>
  <sodipodi:namedview
     units="mm"
     id="base"
     pagecolor="#ffffff"
     bordercolor="#666666"
     borderopacity="1.0"
     inkscape:pageopacity="0.0"
     inkscape:pageshadow="2"
     inkscape:zoom="0.49497475"
     inkscape:cx="12.050678"
     inkscape:cy="518.17647"
     inkscape:document-units="mm"
     inkscape:current-layer="layer1"
     inkscape:document-rotation="0"
     showgrid="false"
     inkscape:window-width="1920"
     inkscape:window-height="1017"
     inkscape:window-x="-8"
     inkscape:window-y="-8"
     inkscape:window-maximized="1" />
  <metadata
     id="metadata5">
    <rdf:RDF>
      <cc:Work
         rdf:about="">
        <dc:format>image/svg+xml</dc:format>
        <dc:type
           rdf:resource="http://purl.org/dc/dcmitype/StillImage" />
        <dc:title></dc:title>
      </cc:Work>
    </rdf:RDF>
  </metadata>
  <g
     inkscape:label="Layer 1"
     inkscape:groupmode="layer"
     id="layer1">
    <g
       sodipodi:type="inkscape:box3d"
       id="g132"
       style="opacity:0.68;fill:#000080"
       inkscape:perspectiveID="#perspective146"
       inkscape:corner0="-0.28829373 : 0.053887733 : 0 : 1"
       inkscape:corner7="-0.38326239 : 0.0081503339 : 0.25 : 1">
      <path
         sodipodi:type="inkscape:box3dside"
         id="path138"
         style="fill:#8686bf;fill-rule:evenodd;stroke:none;stroke-width:0.693116;stroke-linejoin:round"
         inkscape:box3dsidetype="3"
         d="m 363.17877,-193.54292 55.92427,2.64653 v -206.74235 l -55.92427,24.94076 z"
         points="419.10304,-190.89639 419.10304,-397.63874 363.17877,-372.69798 363.17877,-193.54292 " />
      <path
         sodipodi:type="inkscape:box3dside"
         id="path140"
         style="fill:#d7d7ff;fill-rule:evenodd;stroke:none;stroke-width:0.693116;stroke-linejoin:round"
         inkscape:box3dsidetype="14"
         d="m 419.10304,-190.89639 v -206.74235 l 28.22371,53.91163 v 147.11002 z"
         points="419.10304,-397.63874 447.32675,-343.72711 447.32675,-196.61709 419.10304,-190.89639 " />
      <path
         sodipodi:type="inkscape:box3dside"
         id="path136"
         style="fill:#4d4d9f;fill-rule:evenodd;stroke:none;stroke-width:0.693116;stroke-linejoin:round"
         inkscape:box3dsidetype="5"
         d="m 363.17877,-193.54292 55.92427,2.64653 28.22371,-5.7207 -44.17359,-1.39363 z"
         points="419.10304,-190.89639 447.32675,-196.61709 403.15316,-198.01072 363.17877,-193.54292 " />
      <path
         sodipodi:type="inkscape:box3dside"
         id="path144"
         style="fill:#e9e9ff;fill-rule:evenodd;stroke:none;stroke-width:0.693116;stroke-linejoin:round"
         inkscape:box3dsidetype="11"
         d="m 403.15316,-198.01072 44.17359,1.39363 v -147.11002 l -44.17359,13.13351 z"
         points="447.32675,-196.61709 447.32675,-343.72711 403.15316,-330.5936 403.15316,-198.01072 " />
      <path
         sodipodi:type="inkscape:box3dside"
         id="path134"
         style="fill:#353564;fill-rule:evenodd;stroke:none;stroke-width:0.693116;stroke-linejoin:round"
         inkscape:box3dsidetype="6"
         d="m 363.17877,-193.54292 v -179.15506 l 39.97439,42.10438 v 132.58288 z"
         points="363.17877,-372.69798 403.15316,-330.5936 403.15316,-198.01072 363.17877,-193.54292 " />
      <path
         sodipodi:type="inkscape:box3dside"
         id="path142"
         style="fill:#afafde;fill-rule:evenodd;stroke:none;stroke-width:0.693116;stroke-linejoin:round"
         inkscape:box3dsidetype="13"
         d="m 363.17877,-372.69798 55.92427,-24.94076 28.22371,53.91163 -44.17359,13.13351 z"
         points="419.10304,-397.63874 447.32675,-343.72711 403.15316,-330.5936 363.17877,-372.69798 " />
    </g>
    <path
       style="opacity:0.68;fill:#000080;stroke-width:0.177928"
       d=""
       id="path148" />
    <g
       transform="matrix(0.53718467,0,0,0.60433706,-3.8485997e-6,1.4726236)"
       id="g172">
      <g
         transform="matrix(0.49723127,0,0,0.54776282,-77.995875,-50.940077)"
         id="Layer1001">
        <path
           id="path15"
           style="fill:#b7dde8;fill-rule:evenodd;stroke-width:0.75;stroke-linecap:round;stroke-linejoin:round"
           d="m 331.8093,180.9686 h -71.2807 v 111.6638 h 71.2807 z m -82.1473,0 h -71.2807 v 111.6638 h 71.2807 z m 93.2403,0 v 111.6638 h 71.2836 V 180.9686 Z M 302.909,144.2765 v 36.6921 h 28.9003 v 74.9717 h 11.093 v -74.9717 h 31.2874 v -36.6921 z m 0,0 h 29.0164 V 112.843 h -71.2807 v 31.4335 h 29.0149 v 36.6921 h 13.2494 z m -13.2494,0 h -71.2807 v 36.6921 h 31.2831 v 74.9717 h 10.8666 v -74.9717 h 29.131 z" />
        <path
           id="path17"
           style="fill:none;stroke:#000000;stroke-width:0.75;stroke-linecap:round;stroke-linejoin:round;stroke-dasharray:none"
           d="m 331.8093,180.9686 h -71.2807 v 111.6638 h 71.2807 z m -82.1473,0 h -71.2807 v 111.6638 h 71.2807 z m 93.2403,0 v 111.6638 h 71.2836 V 180.9686 Z M 302.909,144.2765 v 36.6921 h 28.9003 v 74.9717 h 11.093 v -74.9717 h 31.2874 v -36.6921 z m 0,0 h 29.0164 V 112.843 h -71.2807 v 31.4335 h 29.0149 v 36.6921 h 13.2494 z m -13.2494,0 h -71.2807 v 36.6921 h 31.2831 v 74.9717 h 10.8666 v -74.9717 h 29.131 z" />
      </g>
      <path
         id="path20"
         style="fill:#ffffff;fill-rule:evenodd;stroke-width:0.391413;stroke-linecap:round;stroke-linejoin:round"
         d="m 121.42839,82.904699 a 2.1416249,2.3592694 0 1 1 -2.14162,-2.359272 2.1416249,2.3592694 0 0 1 2.14162,2.359272 z m -15.26922,8.628673 h 15.27065 v -1.590147 h -15.27065 z m 0,4.82526 h 15.27065 v -1.590107 h -15.27065 z m 0,4.825298 h 15.27065 V 99.59224 H 106.15917 Z M 80.037875,82.904699 a 2.1416249,2.3592694 0 1 1 -2.14163,-2.359272 2.1416249,2.3592694 0 0 1 2.14163,2.359272 z m -15.26783,8.628673 h 15.26927 v -1.590147 h -15.26927 z m 0,4.82526 h 15.26927 v -1.590107 h -15.26927 z m 0,4.825298 h 15.26927 V 99.59224 H 64.770045 Z M 39.971205,82.904699 a 2.1416249,2.3592694 0 1 1 -2.14163,-2.359272 2.1416249,2.3592694 0 0 1 2.14163,2.359272 z m -15.26928,8.628673 h 15.27067 v -1.590147 h -15.27067 z m 0,4.82526 h 15.27067 v -1.590107 h -15.27067 z m 0,4.825298 h 15.27067 v -1.59169 h -15.27067 z" />
      <path
         d="m 51.718995,131.2951 35.44206,-0.27256 -0.38764,-61.163732 -35.44201,0.27257 z m 40.84517,-0.31413 35.442085,-0.27256 -0.38759,-61.163754 -35.442135,0.272576 z m -46.36078,0.35659 -0.38764,-61.163804 -35.44353,0.272638 0.38759,61.163746 z m 20.01269,19.94508 -0.12739,-20.09801 -14.3697,0.11056 -0.26026,-41.06565 -5.5156,0.04246 0.26026,41.06574 -15.55672,0.11966 0.1274,20.09807 z m 0,0 -14.42742,0.11097 0.10915,17.21771 35.44199,-0.27257 -0.10899,-17.21771 -14.42675,0.11097 -0.1274,-20.09804 -6.58787,0.0507 z m 6.58788,-0.0507 35.442145,-0.27257 -0.12742,-20.09802 -15.554545,0.11967 -0.26024,-41.065672 -5.40312,0.04144 0.26027,41.065732 -14.4845,0.11138 z"
         style="fill:#b7dde8;fill-rule:evenodd;stroke-width:0.391413;stroke-linecap:round;stroke-linejoin:round"
         id="path27" />
      <path
         d="m 51.718995,130.19957 35.44206,-0.27256 -0.38764,-61.163741 -35.44201,0.272577 z m 40.84517,-0.31412 35.442085,-0.27257 -0.38759,-61.163756 -35.442135,0.272576 z m -46.36078,0.35658 -0.38764,-61.163805 -35.44353,0.27263 0.38759,61.163745 z m 20.01269,19.94508 -0.12739,-20.09802 -14.3697,0.11057 -0.26026,-41.065652 -5.5156,0.04246 0.26026,41.065732 -15.55672,0.11967 0.1274,20.09807 z m 0,0 -14.42742,0.11097 0.10915,17.21771 35.44199,-0.27257 -0.10899,-17.21771 -14.42675,0.11097 -0.1274,-20.09804 -6.58787,0.0507 z m 6.58788,-0.0507 35.442145,-0.27257 -0.12742,-20.09801 -15.554545,0.11966 -0.26024,-41.065667 -5.40312,0.04144 0.26027,41.065727 -14.4845,0.11138 z"
         style="fill:none;stroke:#000000;stroke-width:0.391413;stroke-linecap:round;stroke-linejoin:round;stroke-dasharray:none"
         id="path29" />
      <path
         id="path32"
         style="fill:#ffffff;fill-rule:evenodd;stroke-width:0.391413;stroke-linecap:round;stroke-linejoin:round"
         d="m 19.064215,112.18125 a 2.1416249,2.3592694 0 1 1 2.15655,2.34276 2.1416249,2.3592694 0 0 1 -2.15655,-2.34276 z m 15.21418,-8.74592 -15.27027,0.11738 0.0102,1.59008 15.27027,-0.11738 z m -0.0305,-4.825136 -15.27032,0.117379 0.0102,1.590077 15.27027,-0.1174 z m -0.0306,-4.825198 -15.27032,0.117386 0.0102,1.591644 15.27027,-0.117385 z m 26.23636,18.077944 a 2.1416249,2.3592694 0 1 1 2.15654,2.3427 2.1416249,2.3592694 0 0 1 -2.15654,-2.3427 z m 15.21276,-8.74592 -15.26884,0.11739 0.0101,1.59009 15.26884,-0.11739 z m -0.0306,-4.825135 -15.26885,0.117385 0.0101,1.590106 15.26885,-0.117385 z m -0.0306,-4.825185 -15.26883,0.117379 0.0101,1.591637 15.26884,-0.117385 z m 24.914225,18.08806 a 2.1416249,2.3592694 0 1 1 2.15656,2.34277 2.1416249,2.3592694 0 0 1 -2.15656,-2.34277 z m 15.21419,-8.7459 -15.27027,0.11738 0.01,1.59004 15.27033,-0.11738 z m -0.0307,-4.825153 -15.27027,0.117378 0.01,1.590045 15.27032,-0.117378 z m -0.0306,-4.825171 -15.27027,0.117378 0.01,1.591692 15.27032,-0.117378 z" />
      <text
         xml:space="preserve"
         style="font-style:normal;font-variant:normal;font-weight:400;font-size:2.58707px;line-height:125%;font-family:Calibri;text-align:start;letter-spacing:0px;word-spacing:0px;text-anchor:start;fill:#000000;fill-opacity:1;stroke:none;stroke-width:0.17614"
         x="-8.4995772e-06"
         y="-2.9010017"
         id="text172"
         transform="scale(0.97835773,1.022121)"><tspan
           style="stroke-width:0.17614"
           sodipodi:role="line"
           x="-8.4995772e-06"
           y="-2.9010017"
           id="tspan170"><tspan
             dx="0"
             dy="0"
             style="font-style:normal;font-variant:normal;font-weight:400;font-size:2.58707px;font-family:Calibri;fill:#000000;stroke-width:0.17614"
             id="tspan168"> </tspan></tspan></text>
    </g>
  </g>
</svg>
